<svg width="168" height="51" viewBox="0 0 168 51" fill="none" xmlns="http://www.w3.org/2000/svg">
<g clip-path="url(#clip0_6559_3631)">
<path d="M25.0004 41.3835L27.1582 45.4675L25.0004 49.5516L22.8425 45.4675L25.0004 41.3835Z" fill="#599628"/>
<path d="M25.0006 0.471436C20.8144 0.471601 16.6469 1.75284 8.81533 4.16052L7.8075 4.47034V18.1057C7.80754 18.3186 7.81086 18.5375 7.81771 18.7615C8.44739 17.9843 9.35571 17.4086 10.0404 17.0824V6.13291C17.608 3.80844 21.3137 2.71797 25.0006 2.71782C28.6875 2.71797 32.3931 3.80844 39.9608 6.13291V17.0824C40.6455 17.4086 41.5538 17.9843 42.1835 18.7615C42.1903 18.5375 42.1936 18.3186 42.1937 18.1057V4.47034L41.1859 4.16052C33.3543 1.75284 29.1868 0.471601 25.0006 0.471436Z" fill="#589626"/>
<path fill-rule="evenodd" clip-rule="evenodd" d="M29.9357 10.097C29.9357 12.7551 27.7818 14.9099 25.1249 14.9099C22.468 14.9099 20.3141 12.7551 20.3141 10.097C20.3141 7.43897 22.468 5.28418 25.1249 5.28418C27.7818 5.28418 29.9357 7.43897 29.9357 10.097ZM27.2898 10.097C27.2898 11.2932 26.3205 12.2629 25.1249 12.2629C23.9293 12.2629 22.96 11.2932 22.96 10.097C22.96 8.90091 23.9293 7.93125 25.1249 7.93125C26.3205 7.93125 27.2898 8.90091 27.2898 10.097Z" fill="#589626"/>
<path fill-rule="evenodd" clip-rule="evenodd" d="M18.8704 12.7441C18.8704 14.6047 17.3627 16.1132 15.5029 16.1132C13.643 16.1132 12.1353 14.6047 12.1353 12.7441C12.1353 10.8835 13.643 9.37512 15.5029 9.37512C17.3627 9.37512 18.8704 10.8835 18.8704 12.7441ZM16.9461 12.7441C16.9461 13.5415 16.3 14.188 15.5029 14.188C14.7058 14.188 14.0596 13.5415 14.0596 12.7441C14.0596 11.9467 14.7058 11.3003 15.5029 11.3003C16.3 11.3003 16.9461 11.9467 16.9461 12.7441Z" fill="#589626"/>
<path fill-rule="evenodd" clip-rule="evenodd" d="M34.7461 16.1132C36.606 16.1132 38.1137 14.6047 38.1137 12.7441C38.1137 10.8835 36.606 9.37512 34.7461 9.37512C32.8863 9.37512 31.3785 10.8835 31.3785 12.7441C31.3785 14.6047 32.8863 16.1132 34.7461 16.1132ZM34.7461 14.188C35.5432 14.188 36.1894 13.5415 36.1894 12.7441C36.1894 11.9467 35.5432 11.3003 34.7461 11.3003C33.949 11.3003 33.3029 11.9467 33.3029 12.7441C33.3029 13.5415 33.949 14.188 34.7461 14.188Z" fill="#589626"/>
<path d="M0.521578 22.9096C4.26454 31.2453 7.0543 35.9288 16.5007 41.044L16.5038 41.0345C5.99752 34.5225 -0.393775 23.8979 6.49481 14.1881C5.83356 29.1079 11.5955 38.0118 25.0001 43.9075C38.4047 38.0118 44.1667 29.1079 43.5054 14.1881C50.394 23.8979 44.0027 34.5225 33.4964 41.0345L33.4995 41.044C42.9459 35.9288 45.7357 31.2453 49.4786 22.9096C52.7768 34.2344 39.724 40.7108 30.176 43.7062C37.4872 42.9891 43.073 39.8857 48.5699 33.9012C48.2045 43.4905 36.2575 45.004 28.2473 44.8073C33.5694 45.864 38.6469 45.0484 44.4234 42.4687C41.1539 49.2941 32.8704 48.0089 26.3536 45.5593C29.8964 47.4347 33.8681 48.266 38.6787 48.285C35.0628 51.328 30.9417 50.4649 27.221 48.193C28.1043 48.9989 29.1211 49.7478 30.284 50.4649C28.3903 50.7569 26.8429 50.0144 25.7054 48.853C25.5307 49.6271 25.2861 50.249 25.0002 50.3317C24.7143 50.249 24.4695 49.6271 24.2948 48.853C23.1573 50.0144 21.6099 50.7569 19.7162 50.4649C20.8791 49.7478 21.8959 48.9989 22.7792 48.193C19.0585 50.4649 14.9374 51.328 11.3215 48.285C16.1321 48.266 20.1038 47.4347 23.6466 45.5593C17.1298 48.0089 8.84635 49.2941 5.57681 42.4687C11.3533 45.0484 16.4308 45.864 21.7529 44.8073C13.7427 45.004 1.79571 43.4905 1.43031 33.9012C6.9272 39.8857 12.513 42.9891 19.8242 43.7062C10.2762 40.7108 -2.77655 34.2344 0.521578 22.9096Z" fill="#589626"/>
<path d="M34.2389 21.6512V36.6269C33.4275 37.3596 32.5411 38.066 31.5734 38.7362V21.6512C31.5734 20.4545 30.5971 19.4845 29.3926 19.4845H20.6694C19.465 19.4845 18.4886 20.4545 18.4886 21.6512V38.661C17.5213 37.9862 16.6348 37.2755 15.8232 36.5387V21.6512C15.8232 18.9919 17.9929 16.8362 20.6694 16.8362H29.3926C32.0691 16.8362 34.2389 18.9919 34.2389 21.6512Z" fill="#589626"/>
<path d="M10.0081 28.805C8.78186 26.2526 8.1167 23.761 7.8075 21.6492C8.42568 19.6968 10.262 18.2808 12.4312 18.2808H14.7928C14.3692 19.0082 14.0785 19.8216 13.9538 20.6882H12.4312C11.093 20.6882 10.0081 21.7661 10.0081 23.0958V28.805Z" fill="#589626"/>
<path d="M39.9926 28.805C41.2188 26.2526 41.884 23.761 42.1932 21.6492C41.575 19.6968 39.7387 18.2808 37.5695 18.2808H35.2079C35.6315 19.0082 35.9221 19.8216 36.0469 20.6882H37.5695C38.9077 20.6882 39.9926 21.7661 39.9926 23.0958V28.805Z" fill="#589626"/>
<path opacity="0.5" d="M65.5261 7.52748C65.2061 7.52748 64.9082 7.47342 64.6322 7.3653C64.3602 7.25717 64.1241 7.107 63.9241 6.91478C63.7241 6.71856 63.5682 6.4903 63.4562 6.23C63.3442 5.9697 63.2881 5.68538 63.2881 5.37703C63.2881 5.06867 63.3442 4.78435 63.4562 4.52405C63.5682 4.26376 63.7241 4.0375 63.9241 3.84528C64.1241 3.64905 64.3602 3.49688 64.6322 3.38876C64.9042 3.28063 65.2021 3.22657 65.5261 3.22657C65.8461 3.22657 66.1401 3.28063 66.4081 3.38876C66.6801 3.49288 66.9161 3.64305 67.1161 3.83927C67.3201 4.03149 67.4761 4.25775 67.5841 4.51805C67.6961 4.77834 67.7521 5.06467 67.7521 5.37703C67.7521 5.68938 67.6961 5.97571 67.5841 6.23601C67.4761 6.4963 67.3201 6.72457 67.1161 6.92079C66.9161 7.11301 66.6801 7.26318 66.4081 7.3713C66.1401 7.47542 65.8461 7.52748 65.5261 7.52748ZM65.5261 6.99287C65.7581 6.99287 65.9721 6.95283 66.1681 6.87273C66.3681 6.79264 66.5401 6.68051 66.6841 6.53635C66.8321 6.38818 66.9461 6.21598 67.0261 6.01976C67.1101 5.82354 67.1521 5.60929 67.1521 5.37703C67.1521 5.14476 67.1101 4.93052 67.0261 4.73429C66.9461 4.53807 66.8321 4.36787 66.6841 4.22371C66.5401 4.07554 66.3681 3.96141 66.1681 3.88132C65.9721 3.80123 65.7581 3.76118 65.5261 3.76118C65.2901 3.76118 65.0722 3.80123 64.8722 3.88132C64.6762 3.96141 64.5042 4.07554 64.3562 4.22371C64.2082 4.36787 64.0922 4.53807 64.0082 4.73429C63.9282 4.93052 63.8881 5.14476 63.8881 5.37703C63.8881 5.60929 63.9282 5.82354 64.0082 6.01976C64.0922 6.21598 64.2082 6.38818 64.3562 6.53635C64.5042 6.68051 64.6762 6.79264 64.8722 6.87273C65.0722 6.95283 65.2901 6.99287 65.5261 6.99287ZM68.833 3.02234L68.5329 4.24173L68.4609 3.89333C68.5769 3.89333 68.673 3.92937 68.749 4.00146C68.825 4.07354 68.8629 4.16965 68.8629 4.28979C68.8629 4.40992 68.825 4.50803 68.749 4.58412C68.673 4.66021 68.5789 4.69825 68.4669 4.69825C68.3509 4.69825 68.255 4.66021 68.179 4.58412C68.103 4.50403 68.0649 4.40592 68.0649 4.28979C68.0649 4.24974 68.0669 4.2117 68.0709 4.17566C68.0789 4.13961 68.0909 4.09757 68.1069 4.04951C68.1229 3.99745 68.1449 3.93538 68.1729 3.8633L68.455 3.02234H68.833ZM69.2262 7.47943V7.07096L72.0522 3.56296L72.1183 3.79722H69.2682V3.27463H72.6582V3.68309L69.8442 7.1911L69.7723 6.95683H72.7362V7.47943H69.2262ZM73.3617 7.47943V3.27463H75.2456C75.7296 3.27463 76.1017 3.37274 76.3617 3.56896C76.6217 3.76118 76.7517 4.02548 76.7517 4.36187C76.7517 4.59013 76.6996 4.78235 76.5956 4.93853C76.4956 5.0947 76.3596 5.21484 76.1876 5.29894C76.0156 5.38303 75.8296 5.42508 75.6297 5.42508L75.7377 5.24488C75.9777 5.24488 76.1896 5.28692 76.3736 5.37102C76.5576 5.45512 76.7036 5.57926 76.8116 5.74344C76.9196 5.90363 76.9737 6.10386 76.9737 6.34413C76.9737 6.70454 76.8376 6.98486 76.5656 7.18509C76.2976 7.38131 75.8976 7.47943 75.3657 7.47943H73.3617ZM73.9617 6.99287H75.3416C75.6736 6.99287 75.9276 6.93681 76.1036 6.82468C76.2796 6.71255 76.3676 6.53635 76.3676 6.29608C76.3676 6.0518 76.2796 5.87359 76.1036 5.76147C75.9276 5.64934 75.6736 5.59327 75.3416 5.59327H73.9076V5.10672H75.1916C75.4956 5.10672 75.7316 5.05065 75.8996 4.93853C76.0676 4.8264 76.1516 4.65821 76.1516 4.43395C76.1516 4.20969 76.0676 4.0415 75.8996 3.92937C75.7316 3.81725 75.4956 3.76118 75.1916 3.76118H73.9617V6.99287ZM78.2687 5.0887H80.4286V5.59928H78.2687V5.0887ZM78.3227 6.95683H80.7706V7.47943H77.7227V3.27463H80.6866V3.79722H78.3227V6.95683ZM82.0901 6.46427L82.0601 5.73143L84.4422 3.27463H85.1261L83.2841 5.22085L82.9481 5.59327L82.0901 6.46427ZM81.5621 7.47943V3.27463H82.1622V7.47943H81.5621ZM84.5382 7.47943L82.8162 5.47314L83.2182 5.02863L85.2401 7.47943H84.5382ZM85.6947 7.47943V3.27463H86.2947V7.47943H85.6947ZM88.5961 7.52748C88.2761 7.52748 87.9701 7.47943 87.6782 7.38332C87.3862 7.2832 87.1561 7.15506 86.9881 6.99888L87.2101 6.53034C87.3701 6.6705 87.5741 6.78664 87.8221 6.87874C88.0701 6.97085 88.3281 7.0169 88.5961 7.0169C88.8401 7.0169 89.0382 6.98887 89.1902 6.9328C89.3422 6.87674 89.4541 6.80065 89.5261 6.70454C89.5982 6.60443 89.6342 6.4923 89.6342 6.36816C89.6342 6.22399 89.5861 6.10786 89.4901 6.01976C89.3981 5.93166 89.2761 5.86158 89.1241 5.80952C88.9761 5.75346 88.8122 5.7054 88.6322 5.66536C88.4522 5.62531 88.2701 5.57926 88.0861 5.5272C87.9061 5.47113 87.7401 5.40105 87.5881 5.31696C87.4401 5.23286 87.3201 5.12073 87.2281 4.98057C87.1361 4.83641 87.0901 4.6522 87.0901 4.42794C87.0901 4.2117 87.1462 4.01347 87.2582 3.83326C87.3742 3.64905 87.5502 3.50289 87.7862 3.39476C88.0262 3.28264 88.3301 3.22657 88.6981 3.22657C88.9421 3.22657 89.1842 3.25861 89.4242 3.32268C89.6642 3.38675 89.8721 3.47886 90.0481 3.599L89.8501 4.07955C89.6701 3.95941 89.4801 3.87331 89.2801 3.82125C89.0801 3.76519 88.8861 3.73715 88.6981 3.73715C88.4621 3.73715 88.2681 3.76719 88.1161 3.82726C87.9641 3.88733 87.8521 3.96742 87.7801 4.06753C87.7121 4.16765 87.6782 4.27977 87.6782 4.40392C87.6782 4.55209 87.7242 4.67022 87.8162 4.75832C87.9122 4.84642 88.0341 4.9165 88.1821 4.96856C88.3341 5.02062 88.5001 5.06868 88.6801 5.11273C88.8601 5.15277 89.0401 5.19882 89.2201 5.25088C89.4042 5.30294 89.5702 5.37102 89.7182 5.45512C89.8702 5.53921 89.9921 5.65134 90.0841 5.7915C90.1761 5.93166 90.2221 6.11187 90.2221 6.33212C90.2221 6.54436 90.1641 6.74259 90.0481 6.9268C89.9321 7.107 89.7522 7.25317 89.5082 7.3653C89.2682 7.47342 88.9641 7.52748 88.5961 7.52748ZM91.694 7.47943V3.79722H90.254V3.27463H93.728V3.79722H92.2881V7.47943H91.694ZM96.039 7.52748C95.719 7.52748 95.4209 7.47342 95.1449 7.3653C94.8729 7.25717 94.6369 7.107 94.4369 6.91478C94.2369 6.71856 94.081 6.4903 93.969 6.23C93.857 5.9697 93.8009 5.68538 93.8009 5.37703C93.8009 5.06867 93.857 4.78435 93.969 4.52405C94.081 4.26376 94.2369 4.0375 94.4369 3.84528C94.6369 3.64905 94.8729 3.49688 95.1449 3.38876C95.4169 3.28063 95.715 3.22657 96.039 3.22657C96.359 3.22657 96.6529 3.28063 96.9209 3.38876C97.1929 3.49288 97.4289 3.64305 97.6289 3.83927C97.8329 4.03149 97.9889 4.25775 98.097 4.51805C98.209 4.77834 98.2649 5.06467 98.2649 5.37703C98.2649 5.68938 98.209 5.97571 98.097 6.23601C97.9889 6.4963 97.8329 6.72457 97.6289 6.92079C97.4289 7.11301 97.1929 7.26318 96.9209 7.3713C96.6529 7.47542 96.359 7.52748 96.039 7.52748ZM96.039 6.99287C96.271 6.99287 96.485 6.95283 96.681 6.87273C96.881 6.79264 97.0529 6.68051 97.1969 6.53635C97.3449 6.38818 97.459 6.21598 97.539 6.01976C97.623 5.82354 97.665 5.60929 97.665 5.37703C97.665 5.14476 97.623 4.93052 97.539 4.73429C97.459 4.53807 97.3449 4.36787 97.1969 4.22371C97.0529 4.07554 96.881 3.96141 96.681 3.88132C96.485 3.80123 96.271 3.76118 96.039 3.76118C95.803 3.76118 95.585 3.80123 95.385 3.88132C95.189 3.96141 95.0169 4.07554 94.8689 4.22371C94.7209 4.36787 94.6049 4.53807 94.5209 4.73429C94.4409 4.93052 94.401 5.14476 94.401 5.37703C94.401 5.60929 94.4409 5.82354 94.5209 6.01976C94.6049 6.21598 94.7209 6.38818 94.8689 6.53635C95.0169 6.68051 95.189 6.79264 95.385 6.87273C95.585 6.95283 95.803 6.99287 96.039 6.99287ZM99.002 7.47943V3.27463H99.494L102.272 6.72857H102.014V3.27463H102.614V7.47943H102.122L99.3441 4.02548H99.602V7.47943H99.002ZM105.122 7.47943V3.27463H106.76C107.128 3.27463 107.442 3.33269 107.702 3.44883C107.962 3.56496 108.162 3.73315 108.302 3.9534C108.442 4.17365 108.512 4.43595 108.512 4.7403C108.512 5.04465 108.442 5.30695 108.302 5.5272C108.162 5.74345 107.962 5.90963 107.702 6.02577C107.442 6.1419 107.128 6.19997 106.76 6.19997H105.452L105.722 5.92365V7.47943H105.122ZM107.93 7.47943L106.862 5.95368H107.504L108.584 7.47943H107.93ZM105.722 5.98372L105.452 5.68938H106.742C107.126 5.68938 107.416 5.60729 107.612 5.4431C107.812 5.27491 107.912 5.04064 107.912 4.7403C107.912 4.43996 107.812 4.20769 107.612 4.0435C107.416 3.87932 107.126 3.79722 106.742 3.79722H105.452L105.722 3.49688V5.98372ZM109.848 5.0887H112.008V5.59928H109.848V5.0887ZM109.902 6.95683H112.35V7.47943H109.302V3.27463H112.266V3.79722H109.902V6.95683ZM114.365 7.52748C114.045 7.52748 113.739 7.47943 113.447 7.38332C113.155 7.2832 112.925 7.15506 112.757 6.99888L112.979 6.53034C113.139 6.6705 113.343 6.78664 113.591 6.87874C113.839 6.97085 114.097 7.0169 114.365 7.0169C114.609 7.0169 114.807 6.98887 114.959 6.9328C115.111 6.87674 115.223 6.80065 115.295 6.70454C115.367 6.60443 115.403 6.4923 115.403 6.36816C115.403 6.22399 115.355 6.10786 115.259 6.01976C115.167 5.93166 115.045 5.86158 114.893 5.80952C114.745 5.75346 114.581 5.7054 114.401 5.66536C114.221 5.62531 114.039 5.57926 113.855 5.5272C113.675 5.47113 113.509 5.40105 113.357 5.31696C113.209 5.23286 113.089 5.12073 112.997 4.98057C112.905 4.83641 112.859 4.6522 112.859 4.42794C112.859 4.2117 112.915 4.01347 113.027 3.83326C113.143 3.64905 113.319 3.50289 113.555 3.39476C113.795 3.28264 114.099 3.22657 114.467 3.22657C114.711 3.22657 114.953 3.25861 115.193 3.32268C115.433 3.38675 115.641 3.47886 115.817 3.599L115.619 4.07955C115.439 3.95941 115.249 3.87331 115.049 3.82125C114.849 3.76519 114.655 3.73715 114.467 3.73715C114.231 3.73715 114.037 3.76719 113.885 3.82726C113.733 3.88733 113.621 3.96742 113.549 4.06753C113.481 4.16765 113.447 4.27977 113.447 4.40392C113.447 4.55209 113.493 4.67022 113.585 4.75832C113.681 4.84642 113.803 4.9165 113.951 4.96856C114.103 5.02062 114.269 5.06868 114.449 5.11273C114.629 5.15277 114.809 5.19882 114.989 5.25088C115.173 5.30294 115.339 5.37102 115.487 5.45512C115.639 5.53921 115.761 5.65134 115.853 5.7915C115.945 5.93166 115.991 6.11187 115.991 6.33212C115.991 6.54436 115.933 6.74259 115.817 6.9268C115.701 7.107 115.521 7.25317 115.277 7.3653C115.037 7.47342 114.733 7.52748 114.365 7.52748ZM116.688 7.47943V3.27463H118.326C118.694 3.27463 119.008 3.33269 119.268 3.44883C119.528 3.56496 119.728 3.73315 119.868 3.9534C120.008 4.17365 120.078 4.43595 120.078 4.7403C120.078 5.04465 120.008 5.30695 119.868 5.5272C119.728 5.74345 119.528 5.91164 119.268 6.03177C119.008 6.14791 118.694 6.20597 118.326 6.20597H117.018L117.288 5.92365V7.47943H116.688ZM117.288 5.98372L117.018 5.68338H118.308C118.692 5.68338 118.982 5.60128 119.178 5.4371C119.378 5.27291 119.478 5.04064 119.478 4.7403C119.478 4.43996 119.378 4.20769 119.178 4.0435C118.982 3.87932 118.692 3.79722 118.308 3.79722H117.018L117.288 3.49688V5.98372ZM122.531 7.52748C121.979 7.52748 121.545 7.3693 121.229 7.05294C120.913 6.73658 120.755 6.27405 120.755 5.66536V3.27463H121.355V5.64133C121.355 6.10986 121.457 6.45225 121.661 6.6685C121.869 6.88475 122.161 6.99287 122.537 6.99287C122.917 6.99287 123.209 6.88475 123.413 6.6685C123.621 6.45225 123.725 6.10986 123.725 5.64133V3.27463H124.307V5.66536C124.307 6.27405 124.149 6.73658 123.833 7.05294C123.521 7.3693 123.087 7.52748 122.531 7.52748ZM125.357 7.47943V3.27463H127.241C127.725 3.27463 128.097 3.37274 128.357 3.56896C128.617 3.76118 128.747 4.02548 128.747 4.36187C128.747 4.59013 128.695 4.78235 128.591 4.93853C128.491 5.0947 128.355 5.21484 128.183 5.29894C128.011 5.38303 127.825 5.42508 127.625 5.42508L127.733 5.24488C127.973 5.24488 128.185 5.28692 128.369 5.37102C128.553 5.45512 128.699 5.57926 128.807 5.74344C128.915 5.90363 128.969 6.10386 128.969 6.34413C128.969 6.70454 128.833 6.98486 128.561 7.18509C128.293 7.38131 127.893 7.47943 127.361 7.47943H125.357ZM125.957 6.99287H127.337C127.669 6.99287 127.923 6.93681 128.099 6.82468C128.275 6.71255 128.363 6.53635 128.363 6.29608C128.363 6.0518 128.275 5.87359 128.099 5.76147C127.923 5.64934 127.669 5.59327 127.337 5.59327H125.903V5.10672H127.187C127.491 5.10672 127.727 5.05065 127.895 4.93853C128.063 4.8264 128.147 4.65821 128.147 4.43395C128.147 4.20969 128.063 4.0415 127.895 3.92937C127.727 3.81725 127.491 3.76118 127.187 3.76118H125.957V6.99287ZM129.718 7.47943V3.27463H130.318V6.95683H132.592V7.47943H129.718ZM133.101 7.47943V3.27463H133.701V7.47943H133.101ZM135.306 6.46427L135.276 5.73143L137.658 3.27463H138.342L136.5 5.22085L136.164 5.59327L135.306 6.46427ZM134.778 7.47943V3.27463H135.378V7.47943H134.778ZM137.754 7.47943L136.032 5.47314L136.434 5.02863L138.456 7.47943H137.754ZM138.105 7.47943L140.007 3.27463H140.601L142.509 7.47943H141.879L140.181 3.61101H140.421L138.723 7.47943H138.105ZM138.915 6.42823L139.077 5.94768H141.441L141.615 6.42823H138.915ZM144.179 7.52748C143.859 7.52748 143.553 7.47943 143.261 7.38332C142.969 7.2832 142.739 7.15506 142.571 6.99888L142.793 6.53034C142.953 6.6705 143.157 6.78664 143.405 6.87874C143.653 6.97085 143.911 7.0169 144.179 7.0169C144.423 7.0169 144.621 6.98887 144.773 6.9328C144.925 6.87674 145.037 6.80065 145.109 6.70454C145.181 6.60443 145.217 6.4923 145.217 6.36816C145.217 6.22399 145.169 6.10786 145.073 6.01976C144.981 5.93166 144.859 5.86158 144.707 5.80952C144.559 5.75346 144.395 5.7054 144.215 5.66536C144.035 5.62531 143.853 5.57926 143.669 5.5272C143.489 5.47113 143.323 5.40105 143.171 5.31696C143.023 5.23286 142.903 5.12073 142.811 4.98057C142.719 4.83641 142.673 4.6522 142.673 4.42794C142.673 4.2117 142.729 4.01347 142.841 3.83326C142.957 3.64905 143.133 3.50289 143.369 3.39476C143.609 3.28264 143.913 3.22657 144.281 3.22657C144.525 3.22657 144.767 3.25861 145.007 3.32268C145.247 3.38675 145.455 3.47886 145.631 3.599L145.433 4.07955C145.253 3.95941 145.063 3.87331 144.863 3.82125C144.663 3.76519 144.469 3.73715 144.281 3.73715C144.045 3.73715 143.851 3.76719 143.699 3.82726C143.547 3.88733 143.435 3.96742 143.363 4.06753C143.295 4.16765 143.261 4.27977 143.261 4.40392C143.261 4.55209 143.307 4.67022 143.399 4.75832C143.495 4.84642 143.617 4.9165 143.765 4.96856C143.917 5.02062 144.083 5.06868 144.263 5.11273C144.443 5.15277 144.623 5.19882 144.803 5.25088C144.987 5.30294 145.153 5.37102 145.301 5.45512C145.453 5.53921 145.575 5.65134 145.667 5.7915C145.759 5.93166 145.805 6.11187 145.805 6.33212C145.805 6.54436 145.747 6.74259 145.631 6.9268C145.515 7.107 145.335 7.25317 145.091 7.3653C144.851 7.47342 144.547 7.52748 144.179 7.52748ZM146.502 7.47943V3.27463H147.102V7.47943H146.502ZM63.6301 17.4909V13.2861H65.2681C65.6361 13.2861 65.9501 13.3441 66.2101 13.4603C66.4701 13.5764 66.6701 13.7446 66.8101 13.9648C66.9501 14.1851 67.0201 14.4474 67.0201 14.7517C67.0201 15.0561 66.9501 15.3184 66.8101 15.5386C66.6701 15.7549 66.4701 15.9231 66.2101 16.0432C65.9501 16.1593 65.6361 16.2174 65.2681 16.2174H63.9601L64.2302 15.9351V17.4909H63.6301ZM64.2302 15.9951L63.9601 15.6948H65.2501C65.6341 15.6948 65.9242 15.6127 66.1202 15.4485C66.3202 15.2843 66.4201 15.0521 66.4201 14.7517C66.4201 14.4514 66.3202 14.2191 66.1202 14.0549C65.9242 13.8907 65.6341 13.8087 65.2501 13.8087H63.9601L64.2302 13.5083V15.9951ZM67.7216 17.4909V13.2861H69.3596C69.7276 13.2861 70.0416 13.3441 70.3016 13.4603C70.5616 13.5764 70.7616 13.7446 70.9016 13.9648C71.0416 14.1851 71.1117 14.4474 71.1117 14.7517C71.1117 15.0561 71.0416 15.3184 70.9016 15.5386C70.7616 15.7549 70.5616 15.9211 70.3016 16.0372C70.0416 16.1533 69.7276 16.2114 69.3596 16.2114H68.0516L68.3217 15.9351V17.4909H67.7216ZM70.5297 17.4909L69.4617 15.9651H70.1036L71.1837 17.4909H70.5297ZM68.3217 15.9951L68.0516 15.7008H69.3416C69.7256 15.7008 70.0157 15.6187 70.2117 15.4545C70.4117 15.2863 70.5116 15.0521 70.5116 14.7517C70.5116 14.4514 70.4117 14.2191 70.2117 14.0549C70.0157 13.8907 69.7256 13.8087 69.3416 13.8087H68.0516L68.3217 13.5083V15.9951ZM72.447 15.1001H74.6071V15.6107H72.447V15.1001ZM72.501 16.9683H74.949V17.4909H71.9011V13.2861H74.865V13.8087H72.501V16.9683ZM75.3685 17.4909V17.0824L78.1945 13.5744L78.2605 13.8087H75.4105V13.2861H78.8005V13.6945L75.9865 17.2025L75.9145 16.9683H78.8786V17.4909H75.3685ZM79.5038 17.4909V13.2861H80.1038V17.4909H79.5038ZM81.1813 17.4909V13.2861H82.9514C83.3994 13.2861 83.7934 13.3742 84.1334 13.5504C84.4774 13.7266 84.7433 13.9728 84.9313 14.2892C85.1233 14.6056 85.2193 14.972 85.2193 15.3885C85.2193 15.8049 85.1233 16.1713 84.9313 16.4877C84.7433 16.8041 84.4774 17.0504 84.1334 17.2266C83.7934 17.4028 83.3994 17.4909 82.9514 17.4909H81.1813ZM81.7813 16.9683H82.9153C83.2633 16.9683 83.5633 16.9022 83.8153 16.77C84.0714 16.6379 84.2694 16.4537 84.4094 16.2174C84.5494 15.9771 84.6194 15.7008 84.6194 15.3885C84.6194 15.0721 84.5494 14.7958 84.4094 14.5595C84.2694 14.3232 84.0714 14.139 83.8153 14.0069C83.5633 13.8747 83.2633 13.8087 82.9153 13.8087H81.7813V16.9683ZM86.5044 15.1001H88.6643V15.6107H86.5044V15.1001ZM86.5583 16.9683H89.0064V17.4909H85.9583V13.2861H88.9224V13.8087H86.5583V16.9683ZM89.7978 17.4909V13.2861H90.2899L93.0679 16.74H92.8098V13.2861H93.4098V17.4909H92.9179L90.1399 14.0369H90.3978V17.4909H89.7978ZM95.321 17.4909V13.8087H93.881V13.2861H97.355V13.8087H95.9151V17.4909H95.321ZM97.8285 17.4909V13.2861H98.4285V17.4909H97.8285ZM103.949 13.2861H104.549V17.4909H103.949V13.2861ZM101.537 17.4909H100.937V13.2861H101.537V17.4909ZM104.003 15.6167H101.477V15.0941H104.003V15.6167ZM107.366 17.5389C106.814 17.5389 106.38 17.3807 106.064 17.0644C105.748 16.748 105.59 16.2855 105.59 15.6768V13.2861H106.19V15.6528C106.19 16.1213 106.292 16.4637 106.496 16.6799C106.704 16.8962 106.996 17.0043 107.372 17.0043C107.752 17.0043 108.044 16.8962 108.248 16.6799C108.456 16.4637 108.56 16.1213 108.56 15.6528V13.2861H109.142V15.6768C109.142 16.2855 108.984 16.748 108.668 17.0644C108.356 17.3807 107.922 17.5389 107.366 17.5389ZM109.82 17.4909V17.0824L112.646 13.5744L112.712 13.8087H109.862V13.2861H113.252V13.6945L110.438 17.2025L110.366 16.9683H113.33V17.4909H109.82ZM115.696 17.5389C115.144 17.5389 114.71 17.3807 114.394 17.0644C114.078 16.748 113.92 16.2855 113.92 15.6768V13.2861H114.52V15.6528C114.52 16.1213 114.622 16.4637 114.826 16.6799C115.034 16.8962 115.326 17.0043 115.702 17.0043C116.082 17.0043 116.374 16.8962 116.578 16.6799C116.786 16.4637 116.89 16.1213 116.89 15.6528V13.2861H117.472V15.6768C117.472 16.2855 117.314 16.748 116.998 17.0644C116.686 17.3807 116.252 17.5389 115.696 17.5389ZM118.522 17.4909V13.2861H120.16C120.528 13.2861 120.842 13.3441 121.102 13.4603C121.362 13.5764 121.562 13.7446 121.702 13.9648C121.842 14.1851 121.912 14.4474 121.912 14.7517C121.912 15.0561 121.842 15.3184 121.702 15.5386C121.562 15.7549 121.362 15.9211 121.102 16.0372C120.842 16.1533 120.528 16.2114 120.16 16.2114H118.852L119.122 15.9351V17.4909H118.522ZM121.33 17.4909L120.262 15.9651H120.904L121.984 17.4909H121.33ZM119.122 15.9951L118.852 15.7008H120.142C120.526 15.7008 120.816 15.6187 121.012 15.4545C121.212 15.2863 121.312 15.0521 121.312 14.7517C121.312 14.4514 121.212 14.2191 121.012 14.0549C120.816 13.8907 120.526 13.8087 120.142 13.8087H118.852L119.122 13.5083V15.9951ZM122.701 17.4909V13.2861H123.301V17.4909H122.701ZM124.379 17.4909V13.2861H126.149C126.597 13.2861 126.991 13.3742 127.331 13.5504C127.675 13.7266 127.941 13.9728 128.129 14.2892C128.321 14.6056 128.417 14.972 128.417 15.3885C128.417 15.8049 128.321 16.1713 128.129 16.4877C127.941 16.8041 127.675 17.0504 127.331 17.2266C126.991 17.4028 126.597 17.4909 126.149 17.4909H124.379ZM124.979 16.9683H126.113C126.461 16.9683 126.761 16.9022 127.013 16.77C127.269 16.6379 127.467 16.4537 127.607 16.2174C127.747 15.9771 127.817 15.7008 127.817 15.3885C127.817 15.0721 127.747 14.7958 127.607 14.5595C127.467 14.3232 127.269 14.139 127.013 14.0069C126.761 13.8747 126.461 13.8087 126.113 13.8087H124.979V16.9683ZM128.461 17.4909L130.363 13.2861H130.957L132.865 17.4909H132.235L130.537 13.6224H130.777L129.079 17.4909H128.461ZM129.271 16.4397L129.433 15.9591H131.797L131.971 16.4397H129.271ZM135.149 17.5389C134.825 17.5389 134.527 17.4869 134.255 17.3827C133.983 17.2746 133.747 17.1244 133.547 16.9322C133.347 16.736 133.191 16.5077 133.079 16.2474C132.967 15.9871 132.911 15.7008 132.911 15.3885C132.911 15.0761 132.967 14.7898 133.079 14.5295C133.191 14.2692 133.347 14.0429 133.547 13.8507C133.751 13.6545 133.989 13.5043 134.261 13.4002C134.533 13.2921 134.833 13.238 135.161 13.238C135.493 13.238 135.797 13.2921 136.073 13.4002C136.349 13.5083 136.583 13.6705 136.775 13.8867L136.403 14.2592C136.231 14.091 136.043 13.9688 135.839 13.8927C135.639 13.8127 135.421 13.7726 135.185 13.7726C134.945 13.7726 134.721 13.8127 134.513 13.8927C134.309 13.9728 134.131 14.085 133.979 14.2291C133.831 14.3733 133.715 14.5455 133.631 14.7457C133.551 14.9419 133.511 15.1562 133.511 15.3885C133.511 15.6167 133.551 15.831 133.631 16.0312C133.715 16.2274 133.831 16.3996 133.979 16.5478C134.131 16.6919 134.309 16.8041 134.513 16.8842C134.717 16.9643 134.939 17.0043 135.179 17.0043C135.403 17.0043 135.617 16.9703 135.821 16.9022C136.029 16.8301 136.221 16.712 136.397 16.5478L136.739 17.0043C136.531 17.1805 136.287 17.3147 136.007 17.4068C135.731 17.4949 135.445 17.5389 135.149 17.5389ZM136.163 16.9262V15.3644H136.739V17.0043L136.163 16.9262ZM137.708 17.4909V13.2861H138.308V17.4909H137.708Z" fill="white"/>
<path d="M63.9685 32.508V24.3319H65.8585V32.508H63.9685ZM68.9517 32.6481C68.3994 32.6481 67.89 32.5469 67.4233 32.3445C66.9644 32.1342 66.5872 31.8383 66.2917 31.4568L67.3417 30.1953C67.5672 30.4913 67.8044 30.717 68.0533 30.8728C68.3022 31.0207 68.5705 31.0947 68.8583 31.0947C69.6283 31.0947 70.0133 30.643 70.0133 29.7398V25.8504H67.1433V24.3319H71.8917V29.6347C71.8917 30.6469 71.6428 31.4023 71.145 31.9006C70.6472 32.3989 69.9161 32.6481 68.9517 32.6481ZM74.9635 32.508V25.8737H72.3501V24.3319H79.4668V25.8737H76.8535V32.508H74.9635ZM80.1337 32.508V24.3319H82.0237V32.508H80.1337ZM83.6118 32.508V24.3319H85.1752L88.6518 30.1019H87.8235L91.2418 24.3319H92.7935L92.8168 32.508H91.0435L91.0318 27.0534H91.3585L88.6285 31.6437H87.7768L84.9885 27.0534H85.3852V32.508H83.6118ZM98.3711 32.6481C97.7255 32.6481 97.1266 32.543 96.5744 32.3328C96.03 32.1225 95.5555 31.8266 95.1511 31.4451C94.7544 31.0635 94.4433 30.6158 94.2177 30.1019C94 29.5879 93.8911 29.0273 93.8911 28.42C93.8911 27.8126 94 27.252 94.2177 26.7381C94.4433 26.2241 94.7583 25.7764 95.1627 25.3948C95.5672 25.0133 96.0416 24.7174 96.5861 24.5071C97.1305 24.2969 97.7216 24.1918 98.3594 24.1918C99.005 24.1918 99.5961 24.2969 100.133 24.5071C100.677 24.7174 101.148 25.0133 101.544 25.3948C101.949 25.7764 102.264 26.2241 102.489 26.7381C102.715 27.2442 102.828 27.8048 102.828 28.42C102.828 29.0273 102.715 29.5918 102.489 30.1135C102.264 30.6275 101.949 31.0752 101.544 31.4568C101.148 31.8305 100.677 32.1225 100.133 32.3328C99.5961 32.543 99.0088 32.6481 98.3711 32.6481ZM98.3594 31.0363C98.725 31.0363 99.0594 30.974 99.3627 30.8494C99.6738 30.7248 99.9461 30.5457 100.179 30.3122C100.413 30.0785 100.591 29.8021 100.716 29.4828C100.848 29.1635 100.914 28.8093 100.914 28.42C100.914 28.0307 100.848 27.6763 100.716 27.3571C100.591 27.0378 100.413 26.7614 100.179 26.5278C99.9538 26.2942 99.6855 26.1151 99.3744 25.9905C99.0633 25.866 98.725 25.8036 98.3594 25.8036C97.9938 25.8036 97.6555 25.866 97.3444 25.9905C97.0411 26.1151 96.7727 26.2942 96.5394 26.5278C96.3061 26.7614 96.1233 27.0378 95.9911 27.3571C95.8666 27.6763 95.8044 28.0307 95.8044 28.42C95.8044 28.8015 95.8666 29.1558 95.9911 29.4828C96.1233 29.8021 96.3022 30.0785 96.5277 30.3122C96.7611 30.5457 97.0333 30.7248 97.3444 30.8494C97.6555 30.974 97.9938 31.0363 98.3594 31.0363ZM103.898 32.508V24.3319H105.788V32.508H103.898ZM109.406 32.508V29.1675L109.838 30.3122L106.244 24.3319H108.251L111.004 28.9222H109.849L112.614 24.3319H114.469L110.876 30.3122L111.296 29.1675V32.508H109.406ZM123.464 24.3319H125.354V32.508H123.464V24.3319ZM119.754 32.508H117.864V24.3319H119.754V32.508ZM123.604 29.1558H119.614V27.5556H123.604V29.1558ZM126.936 32.508V24.3319H128.826V32.508H126.936ZM130.415 32.508V24.3319H131.978L135.455 30.1019H134.626L138.045 24.3319H139.596L139.62 32.508H137.846L137.835 27.0534H138.161L135.431 31.6437H134.58L131.791 27.0534H132.188V32.508H130.415ZM145.174 32.6481C144.528 32.6481 143.929 32.543 143.377 32.3328C142.833 32.1225 142.358 31.8266 141.954 31.4451C141.557 31.0635 141.246 30.6158 141.02 30.1019C140.803 29.5879 140.694 29.0273 140.694 28.42C140.694 27.8126 140.803 27.252 141.02 26.7381C141.246 26.2241 141.561 25.7764 141.965 25.3948C142.37 25.0133 142.844 24.7174 143.389 24.5071C143.933 24.2969 144.524 24.1918 145.162 24.1918C145.808 24.1918 146.399 24.2969 146.935 24.5071C147.48 24.7174 147.95 25.0133 148.347 25.3948C148.752 25.7764 149.067 26.2241 149.292 26.7381C149.518 27.2442 149.63 27.8048 149.63 28.42C149.63 29.0273 149.518 29.5918 149.292 30.1135C149.067 30.6275 148.752 31.0752 148.347 31.4568C147.95 31.8305 147.48 32.1225 146.935 32.3328C146.399 32.543 145.812 32.6481 145.174 32.6481ZM145.162 31.0363C145.528 31.0363 145.862 30.974 146.165 30.8494C146.477 30.7248 146.749 30.5457 146.982 30.3122C147.215 30.0785 147.394 29.8021 147.519 29.4828C147.651 29.1635 147.717 28.8093 147.717 28.42C147.717 28.0307 147.651 27.6763 147.519 27.3571C147.394 27.0378 147.215 26.7614 146.982 26.5278C146.757 26.2942 146.488 26.1151 146.177 25.9905C145.866 25.866 145.528 25.8036 145.162 25.8036C144.797 25.8036 144.458 25.866 144.147 25.9905C143.844 26.1151 143.575 26.2942 143.342 26.5278C143.109 26.7614 142.926 27.0378 142.794 27.3571C142.669 27.6763 142.607 28.0307 142.607 28.42C142.607 28.8015 142.669 29.1558 142.794 29.4828C142.926 29.8021 143.105 30.0785 143.33 30.3122C143.564 30.5457 143.836 30.7248 144.147 30.8494C144.458 30.974 144.797 31.0363 145.162 31.0363ZM152.378 32.508V29.1675L152.809 30.3122L149.216 24.3319H151.223L153.976 28.9222H152.821L155.586 24.3319H157.441L153.848 30.3122L154.268 29.1675V32.508H152.378ZM156.307 32.508L159.947 24.3319H161.814L165.466 32.508H163.482L160.496 25.2897H161.242L158.244 32.508H156.307ZM158.127 30.756L158.629 29.3193H162.829L163.342 30.756H158.127ZM63.9685 47.5251V39.3491H65.5319L69.0085 45.1191H68.1802L71.5985 39.3491H73.1502L73.1735 47.5251H71.4002L71.3885 42.0706H71.7152L68.9852 46.6608H68.1335L65.3452 42.0706H65.7419V47.5251H63.9685ZM74.7611 47.5251V39.3491H76.6511V47.5251H74.7611ZM78.2392 47.5251V39.3491H80.1292V45.9833H84.2242V47.5251H78.2392ZM84.9303 47.5251V39.3491H86.8203V45.9833H90.9153V47.5251H84.9303ZM91.6213 47.5251V39.3491H93.5113V47.5251H91.6213ZM97.1294 47.5251V44.1846L97.5611 45.3293L93.9677 39.3491H95.9744L98.7277 43.9393H97.5727L100.338 39.3491H102.193L98.5994 45.3293L99.0194 44.1846V47.5251H97.1294ZM104.514 47.5251L108.154 39.3491H110.021L113.672 47.5251H111.689L108.702 40.3069H109.449L106.451 47.5251H104.514ZM106.334 45.7731L106.836 44.3365H111.036L111.549 45.7731H106.334ZM117.999 47.6653C117.353 47.6653 116.758 47.5641 116.214 47.3616C115.677 47.1514 115.207 46.8554 114.802 46.4739C114.406 46.0924 114.095 45.6447 113.869 45.1307C113.651 44.6168 113.542 44.0522 113.542 43.4371C113.542 42.8219 113.651 42.2574 113.869 41.7435C114.095 41.2296 114.41 40.7818 114.814 40.4003C115.218 40.0187 115.693 39.7268 116.237 39.5243C116.782 39.314 117.381 39.2089 118.034 39.2089C118.757 39.2089 119.407 39.3297 119.982 39.571C120.566 39.8124 121.056 40.1628 121.452 40.6222L120.239 41.7435C119.943 41.432 119.621 41.2023 119.271 41.0544C118.921 40.8986 118.54 40.8208 118.127 40.8208C117.731 40.8208 117.369 40.8831 117.042 41.0077C116.716 41.1322 116.432 41.3113 116.191 41.545C115.957 41.7785 115.775 42.055 115.642 42.3742C115.518 42.6935 115.456 43.0478 115.456 43.4371C115.456 43.8187 115.518 44.1691 115.642 44.4883C115.775 44.8076 115.957 45.0879 116.191 45.3293C116.432 45.5629 116.712 45.742 117.031 45.8665C117.357 45.9912 117.715 46.0534 118.104 46.0534C118.477 46.0534 118.839 45.9951 119.189 45.8782C119.547 45.7537 119.893 45.5472 120.227 45.2592L121.301 46.6258C120.857 46.9606 120.34 47.2176 119.749 47.3967C119.166 47.5758 118.582 47.6653 117.999 47.6653ZM119.574 46.3805V43.3086H121.301V46.6258L119.574 46.3805ZM124.445 42.6428H128.376V44.1145H124.445V42.6428ZM124.585 46.0067H129.03V47.5251H122.706V39.3491H128.878V40.8675H124.585V46.0067ZM130.183 47.5251V39.3491H131.747L136.565 45.2358H135.807V39.3491H137.673V47.5251H136.122L131.292 41.6384H132.05V47.5251H130.183ZM140.947 47.5251V40.8908H138.334V39.3491H145.451V40.8908H142.837V47.5251H140.947ZM146.118 47.5251V39.3491H148.008V45.9833H152.103V47.5251H146.118ZM152.809 47.5251V39.3491H154.699V47.5251H152.809ZM160.23 47.6653C159.585 47.6653 158.99 47.5641 158.445 47.3616C157.908 47.1514 157.438 46.8554 157.033 46.4739C156.637 46.0924 156.326 45.6447 156.1 45.1307C155.882 44.6168 155.773 44.0522 155.773 43.4371C155.773 42.8219 155.882 42.2574 156.1 41.7435C156.326 41.2296 156.641 40.7818 157.045 40.4003C157.45 40.0187 157.924 39.7268 158.468 39.5243C159.013 39.314 159.612 39.2089 160.265 39.2089C160.988 39.2089 161.638 39.3297 162.213 39.571C162.797 39.8124 163.287 40.1628 163.683 40.6222L162.47 41.7435C162.175 41.432 161.852 41.2023 161.502 41.0544C161.152 40.8986 160.771 40.8208 160.358 40.8208C159.962 40.8208 159.6 40.8831 159.273 41.0077C158.947 41.1322 158.663 41.3113 158.422 41.545C158.188 41.7785 158.006 42.055 157.873 42.3742C157.749 42.6935 157.687 43.0478 157.687 43.4371C157.687 43.8187 157.749 44.1691 157.873 44.4883C158.006 44.8076 158.188 45.0879 158.422 45.3293C158.663 45.5629 158.943 45.742 159.262 45.8665C159.588 45.9912 159.946 46.0534 160.335 46.0534C160.708 46.0534 161.07 45.9951 161.42 45.8782C161.778 45.7537 162.124 45.5472 162.458 45.2592L163.532 46.6258C163.088 46.9606 162.571 47.2176 161.98 47.3967C161.397 47.5758 160.813 47.6653 160.23 47.6653ZM161.805 46.3805V43.3086H163.532V46.6258L161.805 46.3805ZM164.937 47.5251V39.3491H166.827V47.5251H164.937Z" fill="white"/>
</g>
<defs>
<clipPath id="clip0_6559_3631">
<rect width="168" height="50.0571" fill="white" transform="translate(0 0.471436)"/>
</clipPath>
</defs>
</svg>
