<svg width="1794" height="1194" viewBox="0 0 1794 1194" fill="none" xmlns="http://www.w3.org/2000/svg">
<rect width="1794" height="1194" fill="#F5F9FF"/>
<path d="M884.526 639.971C723.424 559.703 699.944 479.748 693.45 318.637C613.233 420.598 681.238 530.784 799.523 611.716C706.38 562.869 670.861 508.4 626.885 415.612C607.251 455.359 618.504 575.799 839.75 643.084C737.7 626.748 698.329 598.082 637.42 536.771C647.716 593.757 671.415 651.34 857.469 655.774C783.413 663.419 745.581 657.369 684.112 629.675C717.155 685.704 764.821 697.642 873.991 667.028C822.722 688.743 794.799 693.352 745.888 693.367C789.235 722.173 816.547 720.984 869.68 693.367C858.081 704.02 851.526 709.053 839.75 716.593C861.3 723.058 890.033 700.55 890.033 700.55C891.47 714.198 895.78 714.198 895.78 714.198V620.815L884.526 639.971Z" fill="#679A62"/>
<path fill-rule="evenodd" clip-rule="evenodd" d="M693.663 317.979L693.689 318.628C696.936 399.182 704.43 459.399 731.221 509.508C757.986 559.567 804.029 599.569 884.433 639.658L896.019 619.936V714.439H895.78V714.199C895.78 714.439 895.779 714.439 895.779 714.439H895.778L895.776 714.439L895.771 714.439C895.766 714.438 895.761 714.438 895.755 714.438C895.747 714.438 895.737 714.437 895.725 714.436C895.719 714.435 895.713 714.435 895.706 714.434C895.665 714.43 895.61 714.422 895.54 714.406C895.401 714.376 895.208 714.316 894.977 714.2C894.513 713.968 893.901 713.515 893.252 712.635C891.986 710.917 890.575 707.563 889.841 701C889.624 701.164 889.307 701.401 888.897 701.699C888.067 702.304 886.857 703.16 885.339 704.166C882.302 706.18 878.028 708.797 873.077 711.212C863.191 716.035 850.548 720.083 839.681 716.823L839.181 716.673L839.62 716.392C850.926 709.154 857.411 704.231 868.186 694.41C842.401 707.682 822.68 714.62 804.116 714.766C785.161 714.915 767.448 707.983 745.755 693.567L745.095 693.128L745.888 693.128C793.652 693.113 821.374 688.718 870.423 668.269C817.715 682.772 779.543 687.114 750.455 681.078C720.681 674.9 700.453 657.855 683.905 629.797L683.522 629.148L684.21 629.457C714.934 643.299 739.737 651.726 766.106 655.741C791.576 659.618 818.518 659.38 853.682 655.916C762.994 653.373 711.507 637.99 681.395 616.175C650.85 594.046 642.336 565.327 637.184 536.814L637.047 536.057L637.59 536.603C668.041 567.255 693.092 589.729 723.274 606.585C752.767 623.056 787.175 634.168 836.33 642.286C618.26 574.791 607.037 455.251 626.67 415.507L626.889 415.064L627.101 415.511C649.087 461.901 668.95 498.692 694.95 529.99C720.266 560.464 751.408 585.739 796.009 609.585C738.454 569.607 693.197 522.66 671.828 473.158C650.036 422.673 653.096 369.543 693.262 318.49L693.663 317.979ZM890.033 700.551L889.885 700.362L890.226 700.096L890.271 700.526C890.987 707.331 892.417 710.694 893.638 712.351C894.246 713.177 894.802 713.577 895.191 713.772C895.329 713.841 895.447 713.884 895.54 713.912V621.697L884.619 640.286L884.419 640.186C803.845 600.041 757.651 559.956 730.799 509.734C704.023 459.656 696.498 399.529 693.237 319.297C653.566 370.048 650.614 422.805 672.268 472.968C694.003 523.318 740.534 571.066 799.658 611.519L799.412 611.928C752.817 587.493 720.625 561.645 694.582 530.296C668.626 499.052 648.787 462.352 626.881 416.166C607.649 456.164 619.459 575.84 839.819 642.855L839.712 643.321C788.67 635.15 753.285 623.893 723.04 607.003C692.977 590.214 668.007 567.867 637.793 537.487C642.952 565.709 651.553 593.964 681.676 615.787C712.084 637.817 764.462 653.319 857.474 655.536L857.493 656.013C820.455 659.836 792.461 660.237 766.034 656.214C739.804 652.221 715.131 643.872 684.703 630.204C701.127 657.787 721.17 674.512 750.552 680.609C780.187 686.758 819.349 682.103 873.926 666.798L874.084 667.249C823.062 688.859 795.134 693.541 746.682 693.606C768.033 707.698 785.483 714.433 804.112 714.287C822.941 714.139 843.011 706.96 869.57 693.155L869.842 693.544C858.38 704.071 851.834 709.119 840.323 716.51C850.893 719.444 863.155 715.52 872.867 710.782C877.794 708.378 882.05 705.772 885.074 703.767C886.586 702.765 887.79 701.913 888.615 701.312C889.028 701.011 889.346 700.774 889.561 700.611C889.668 700.53 889.749 700.468 889.804 700.426L889.865 700.378L889.88 700.366L889.884 700.363L889.885 700.362C889.886 700.362 889.885 700.362 890.033 700.551Z" fill="#679A62"/>
<path d="M907.325 638.845C1069.16 558.619 1092.75 478.706 1099.27 317.68C1179.86 419.587 1111.54 529.715 992.716 610.604C1086.29 561.783 1121.97 507.343 1166.14 414.604C1185.87 454.33 1174.56 574.707 952.306 641.956C1054.82 625.628 1094.37 596.978 1155.56 535.699C1145.22 592.655 1121.41 650.208 934.506 654.64C1008.9 662.28 1046.9 656.233 1108.66 628.554C1075.46 684.553 1027.58 696.485 917.908 665.888C969.412 687.591 997.462 692.197 1046.6 692.212C1003.05 721.003 975.614 719.815 922.238 692.212C933.89 702.86 940.476 707.891 952.306 715.426C930.657 721.888 901.792 699.392 901.792 699.392C900.349 713.033 896.019 713.033 896.019 713.033V619.699L907.325 638.845Z" fill="#679A62"/>
<path fill-rule="evenodd" clip-rule="evenodd" d="M1099.06 317.024L1099.04 317.67C1095.77 398.182 1088.25 458.367 1061.33 508.45C1034.44 558.482 988.191 598.463 907.418 638.532L895.78 618.823V713.273H896.019V713.033C896.019 713.175 896.019 713.233 896.02 713.257C896.02 713.273 896.02 713.273 896.02 713.273H896.021L896.023 713.273L896.028 713.273C896.032 713.273 896.038 713.272 896.044 713.272C896.056 713.271 896.073 713.27 896.093 713.268C896.134 713.264 896.19 713.256 896.259 713.241C896.399 713.21 896.592 713.15 896.825 713.035C897.291 712.803 897.905 712.35 898.557 711.471C899.829 709.753 901.246 706.4 901.984 699.84C902.202 700.003 902.521 700.241 902.934 700.54C903.768 701.144 904.983 702 906.509 703.006C909.559 705.018 913.853 707.634 918.826 710.048C928.758 714.869 941.458 718.914 952.374 715.656L952.876 715.506L952.434 715.225C941.077 707.99 934.562 703.069 923.737 693.253C949.641 706.519 969.454 713.454 988.102 713.6C1007.14 713.749 1024.94 706.821 1046.73 692.412L1047.39 691.973L1046.6 691.973C998.614 691.958 970.765 687.565 921.492 667.127C974.441 681.623 1012.79 685.962 1042.01 679.929C1071.92 673.755 1092.24 656.72 1108.86 628.676L1109.25 628.027L1108.56 628.336C1077.69 642.171 1052.78 650.593 1026.29 654.605C1000.7 658.48 973.635 658.243 938.312 654.781C1029.41 652.239 1081.13 636.864 1111.38 615.061C1142.07 592.944 1150.62 564.24 1155.8 535.742L1155.93 534.987L1155.39 535.53C1124.8 566.166 1099.64 588.629 1069.31 605.475C1039.69 621.937 1005.12 633.044 955.741 641.158C1174.81 573.698 1186.08 454.222 1166.36 414.498L1166.14 414.057L1165.93 414.502C1143.84 460.867 1123.89 497.639 1097.77 528.92C1072.34 559.38 1041.05 584.642 996.243 608.476C1054.06 568.519 1099.53 521.596 1120.99 472.119C1142.89 421.661 1139.81 368.558 1099.46 317.531L1099.06 317.024ZM901.792 699.392L901.939 699.203L901.599 698.938L901.554 699.367C900.834 706.169 899.398 709.53 898.172 711.186C897.561 712.011 897.003 712.411 896.612 712.606C896.472 712.675 896.353 712.719 896.259 712.747V620.576L907.231 639.158L907.431 639.059C988.373 598.935 1034.78 558.872 1061.75 508.676C1088.65 458.623 1096.21 398.528 1099.49 318.337C1139.34 369.062 1142.31 421.792 1120.55 471.929C1098.72 522.252 1051.98 569.974 992.581 610.406L992.827 610.817C1039.63 586.394 1071.97 560.56 1098.14 529.227C1124.21 497.999 1144.14 461.318 1166.15 415.155C1185.47 455.129 1173.61 574.745 952.236 641.727L952.343 642.192C1003.62 634.026 1039.16 622.775 1069.55 605.894C1099.75 589.113 1124.83 566.778 1155.19 536.412C1150 564.619 1141.36 592.86 1111.1 614.672C1080.56 636.691 1027.94 652.185 934.5 654.4L934.481 654.878C971.688 658.699 999.81 659.099 1026.36 655.079C1052.71 651.088 1077.49 642.743 1108.06 629.082C1091.56 656.65 1071.43 673.367 1041.91 679.46C1012.14 685.607 972.799 680.954 917.973 665.657L917.815 666.108C969.07 687.707 997.126 692.386 1045.8 692.451C1024.35 706.535 1006.82 713.267 988.106 713.121C969.19 712.973 949.028 705.797 922.348 692L922.077 692.389C933.591 702.911 940.167 707.956 951.729 715.343C941.11 718.275 928.792 714.353 919.035 709.617C914.086 707.215 909.811 704.61 906.772 702.606C905.253 701.604 904.044 700.753 903.215 700.152C902.801 699.852 902.481 699.614 902.266 699.452C902.158 699.371 902.076 699.308 902.021 699.267L901.981 699.236L901.96 699.219L901.94 699.204L901.939 699.203C901.939 699.203 901.939 699.203 901.792 699.392Z" fill="#679A62"/>
<path d="M795.932 392.625V564.306C809.854 579.826 816.118 584.074 825.862 587.532V392.625C830.233 383.487 833.588 380.026 844.778 378.019H948.218C958.429 380.091 961.305 383.023 966.655 392.625V587.532C981.705 578.965 989.135 573.8 996.107 564.306V392.625C993.097 366.302 985.386 355.328 955.162 349.765H833.764C808.429 355.804 800.833 365.944 795.932 392.625Z" fill="#679A62"/>
<path d="M731.164 477.318L731.521 478.107V411.542C737.447 398.434 742.72 393.939 754.747 389.752H776.058C775.901 380.743 777.384 375.317 783.48 364.85C740.431 362.134 722.603 368.668 707.577 401.724C714.555 440.654 720.592 453.98 731.164 477.318Z" fill="#679A62"/>
<path d="M1059.3 477.317L1058.94 478.107V411.445C1052.92 398.318 1047.57 393.816 1035.35 389.623H1013.7C1013.86 380.601 1012.36 375.168 1006.16 364.685C1049.89 361.965 1068 368.508 1083.26 401.613C1076.18 440.599 1070.04 453.945 1059.3 477.317Z" fill="#679A62"/>
<path fill-rule="evenodd" clip-rule="evenodd" d="M896.019 298.046C908.732 298.046 919.484 287.573 919.484 274.101C919.484 260.629 908.732 250.157 896.019 250.157C883.306 250.157 872.553 260.629 872.553 274.101C872.553 287.573 883.306 298.046 896.019 298.046ZM896.019 326.779C924.847 326.779 948.217 303.194 948.217 274.101C948.217 245.008 924.847 221.424 896.019 221.424C867.19 221.424 843.82 245.008 843.82 274.101C843.82 303.194 867.19 326.779 896.019 326.779Z" fill="#679A62"/>
<path fill-rule="evenodd" clip-rule="evenodd" d="M790.425 317.681C798.214 317.681 805.031 311.206 805.031 302.596C805.031 293.985 798.214 287.511 790.425 287.511C782.636 287.511 775.819 293.985 775.819 302.596C775.819 311.206 782.636 317.681 790.425 317.681ZM790.425 341.625C811.715 341.625 828.975 324.151 828.975 302.596C828.975 281.04 811.715 263.566 790.425 263.566C769.134 263.566 751.874 281.04 751.874 302.596C751.874 324.151 769.134 341.625 790.425 341.625Z" fill="#679A62"/>
<path fill-rule="evenodd" clip-rule="evenodd" d="M1001.61 317.681C1009.4 317.681 1016.22 311.206 1016.22 302.596C1016.22 293.985 1009.4 287.511 1001.61 287.511C993.825 287.511 987.008 293.985 987.008 302.596C987.008 311.206 993.825 317.681 1001.61 317.681ZM1001.61 341.625C1022.9 341.625 1040.16 324.151 1040.16 302.596C1040.16 281.04 1022.9 263.566 1001.61 263.566C980.323 263.566 963.063 281.04 963.063 302.596C963.063 324.151 980.323 341.625 1001.61 341.625Z" fill="#679A62"/>
<path d="M705.422 213.282V368.202C714.315 358.879 719.865 355.063 731.042 351.441V232.198C860.272 179.993 932.723 178.751 1061.95 232.198V351.441C1073.75 356.783 1079.18 360.359 1085.9 368.202V213.282C933.612 153.191 850.476 155.942 705.422 213.282Z" fill="#679A62"/>
<path fill-rule="evenodd" clip-rule="evenodd" d="M705.661 213.445V367.606C709.926 363.166 713.447 359.99 717.244 357.484C721.125 354.922 725.284 353.065 730.803 351.267V232.037L730.953 231.976C795.58 205.868 846.033 192.495 896.497 192.339C946.962 192.184 997.415 205.248 1062.04 231.977L1062.19 232.038V351.287C1073.67 356.491 1079.13 360.048 1085.66 367.558V213.445C1009.6 183.446 950.819 169.141 892.949 169.485C835.081 169.828 778.104 184.819 705.661 213.445ZM892.946 169.006C950.941 168.662 1009.83 183.008 1085.99 213.059L1086.14 213.119V368.85L1085.72 368.358C1079.03 360.551 1073.63 356.993 1061.85 351.659L1061.71 351.595V232.358C997.184 205.682 946.835 192.663 896.498 192.818C846.161 192.973 795.813 206.302 731.282 232.36V351.615L731.116 351.669C725.541 353.475 721.38 355.327 717.508 357.884C713.633 360.441 710.037 363.711 705.595 368.367L705.182 368.8V213.119L705.334 213.059C777.873 184.385 834.952 169.35 892.946 169.006Z" fill="#679A62"/>
<path d="M405.77 815.42C403.227 815.42 400.928 814.872 398.875 813.775C396.845 812.678 395.247 811.173 394.08 809.26C392.937 807.323 392.365 805.153 392.365 802.75C392.365 800.347 392.937 798.188 394.08 796.275C395.247 794.338 396.845 792.822 398.875 791.725C400.928 790.628 403.227 790.08 405.77 790.08C408.313 790.08 410.6 790.628 412.63 791.725C414.66 792.822 416.258 794.338 417.425 796.275C418.592 798.188 419.175 800.347 419.175 802.75C419.175 805.153 418.592 807.323 417.425 809.26C416.258 811.173 414.66 812.678 412.63 813.775C410.6 814.872 408.313 815.42 405.77 815.42ZM405.77 810.59C407.217 810.59 408.523 810.263 409.69 809.61C410.857 808.933 411.767 808 412.42 806.81C413.097 805.62 413.435 804.267 413.435 802.75C413.435 801.233 413.097 799.88 412.42 798.69C411.767 797.5 410.857 796.578 409.69 795.925C408.523 795.248 407.217 794.91 405.77 794.91C404.323 794.91 403.017 795.248 401.85 795.925C400.683 796.578 399.762 797.5 399.085 798.69C398.432 799.88 398.105 801.233 398.105 802.75C398.105 804.267 398.432 805.62 399.085 806.81C399.762 808 400.683 808.933 401.85 809.61C403.017 810.263 404.323 810.59 405.77 810.59ZM424.639 788.75C425.619 788.75 426.424 789.065 427.054 789.695C427.684 790.302 427.999 791.107 427.999 792.11C427.999 792.577 427.94 793.043 427.824 793.51C427.707 793.977 427.462 794.677 427.089 795.61L425.059 800.65H421.594L423.099 795.12C422.515 794.863 422.06 794.478 421.734 793.965C421.407 793.452 421.244 792.833 421.244 792.11C421.244 791.107 421.559 790.302 422.189 789.695C422.842 789.065 423.659 788.75 424.639 788.75ZM451.929 810.38V815H430.509V811.325L443.949 795.12H430.789V790.5H451.404V794.175L437.999 810.38H451.929ZM473.555 802.26C474.955 802.703 476.052 803.45 476.845 804.5C477.638 805.527 478.035 806.798 478.035 808.315C478.035 810.462 477.195 812.118 475.515 813.285C473.858 814.428 471.432 815 468.235 815H455.565V790.5H467.535C470.522 790.5 472.808 791.072 474.395 792.215C476.005 793.358 476.81 794.91 476.81 796.87C476.81 798.06 476.518 799.122 475.935 800.055C475.375 800.988 474.582 801.723 473.555 802.26ZM461.2 794.77V800.545H466.835C468.235 800.545 469.297 800.3 470.02 799.81C470.743 799.32 471.105 798.597 471.105 797.64C471.105 796.683 470.743 795.972 470.02 795.505C469.297 795.015 468.235 794.77 466.835 794.77H461.2ZM467.815 810.73C469.308 810.73 470.428 810.485 471.175 809.995C471.945 809.505 472.33 808.747 472.33 807.72C472.33 805.69 470.825 804.675 467.815 804.675H461.2V810.73H467.815ZM501.298 810.45V815H482.328V790.5H500.843V795.05H487.963V800.37H499.338V804.78H487.963V810.45H501.298ZM514.734 805.375L511.444 808.805V815H505.809V790.5H511.444V801.945L522.294 790.5H528.594L518.444 801.42L529.189 815H522.574L514.734 805.375ZM531.718 790.5H537.388V815H531.718V790.5ZM551.252 815.42C549.315 815.42 547.437 815.163 545.617 814.65C543.82 814.113 542.374 813.425 541.277 812.585L543.202 808.315C544.252 809.085 545.5 809.703 546.947 810.17C548.394 810.637 549.84 810.87 551.287 810.87C552.897 810.87 554.087 810.637 554.857 810.17C555.627 809.68 556.012 809.038 556.012 808.245C556.012 807.662 555.779 807.183 555.312 806.81C554.869 806.413 554.285 806.098 553.562 805.865C552.862 805.632 551.905 805.375 550.692 805.095C548.825 804.652 547.297 804.208 546.107 803.765C544.917 803.322 543.89 802.61 543.027 801.63C542.187 800.65 541.767 799.343 541.767 797.71C541.767 796.287 542.152 795.003 542.922 793.86C543.692 792.693 544.847 791.772 546.387 791.095C547.95 790.418 549.852 790.08 552.092 790.08C553.655 790.08 555.184 790.267 556.677 790.64C558.17 791.013 559.477 791.55 560.597 792.25L558.847 796.555C556.584 795.272 554.32 794.63 552.057 794.63C550.47 794.63 549.292 794.887 548.522 795.4C547.775 795.913 547.402 796.59 547.402 797.43C547.402 798.27 547.834 798.9 548.697 799.32C549.584 799.717 550.925 800.113 552.722 800.51C554.589 800.953 556.117 801.397 557.307 801.84C558.497 802.283 559.512 802.983 560.352 803.94C561.215 804.897 561.647 806.192 561.647 807.825C561.647 809.225 561.25 810.508 560.457 811.675C559.687 812.818 558.52 813.728 556.957 814.405C555.394 815.082 553.492 815.42 551.252 815.42ZM570.254 795.12H562.414V790.5H583.764V795.12H575.924V815H570.254V795.12ZM598.338 815.42C595.795 815.42 593.497 814.872 591.443 813.775C589.413 812.678 587.815 811.173 586.648 809.26C585.505 807.323 584.933 805.153 584.933 802.75C584.933 800.347 585.505 798.188 586.648 796.275C587.815 794.338 589.413 792.822 591.443 791.725C593.497 790.628 595.795 790.08 598.338 790.08C600.882 790.08 603.168 790.628 605.198 791.725C607.228 792.822 608.827 794.338 609.993 796.275C611.16 798.188 611.743 800.347 611.743 802.75C611.743 805.153 611.16 807.323 609.993 809.26C608.827 811.173 607.228 812.678 605.198 813.775C603.168 814.872 600.882 815.42 598.338 815.42ZM598.338 810.59C599.785 810.59 601.092 810.263 602.258 809.61C603.425 808.933 604.335 808 604.988 806.81C605.665 805.62 606.003 804.267 606.003 802.75C606.003 801.233 605.665 799.88 604.988 798.69C604.335 797.5 603.425 796.578 602.258 795.925C601.092 795.248 599.785 794.91 598.338 794.91C596.892 794.91 595.585 795.248 594.418 795.925C593.252 796.578 592.33 797.5 591.653 798.69C591 799.88 590.673 801.233 590.673 802.75C590.673 804.267 591 805.62 591.653 806.81C592.33 808 593.252 808.933 594.418 809.61C595.585 810.263 596.892 810.59 598.338 810.59ZM638.475 790.5V815H633.82L621.605 800.125V815H616.005V790.5H620.695L632.875 805.375V790.5H638.475ZM669.793 815L665.068 808.175H664.788H659.853V815H654.183V790.5H664.788C666.958 790.5 668.837 790.862 670.423 791.585C672.033 792.308 673.27 793.335 674.133 794.665C674.997 795.995 675.428 797.57 675.428 799.39C675.428 801.21 674.985 802.785 674.098 804.115C673.235 805.422 671.998 806.425 670.388 807.125L675.883 815H669.793ZM669.688 799.39C669.688 798.013 669.245 796.963 668.358 796.24C667.472 795.493 666.177 795.12 664.473 795.12H659.853V803.66H664.473C666.177 803.66 667.472 803.287 668.358 802.54C669.245 801.793 669.688 800.743 669.688 799.39ZM698.891 810.45V815H679.921V790.5H698.436V795.05H685.556V800.37H696.931V804.78H685.556V810.45H698.891ZM711.452 815.42C709.515 815.42 707.637 815.163 705.817 814.65C704.02 814.113 702.574 813.425 701.477 812.585L703.402 808.315C704.452 809.085 705.7 809.703 707.147 810.17C708.594 810.637 710.04 810.87 711.487 810.87C713.097 810.87 714.287 810.637 715.057 810.17C715.827 809.68 716.212 809.038 716.212 808.245C716.212 807.662 715.979 807.183 715.512 806.81C715.069 806.413 714.485 806.098 713.762 805.865C713.062 805.632 712.105 805.375 710.892 805.095C709.025 804.652 707.497 804.208 706.307 803.765C705.117 803.322 704.09 802.61 703.227 801.63C702.387 800.65 701.967 799.343 701.967 797.71C701.967 796.287 702.352 795.003 703.122 793.86C703.892 792.693 705.047 791.772 706.587 791.095C708.15 790.418 710.052 790.08 712.292 790.08C713.855 790.08 715.384 790.267 716.877 790.64C718.37 791.013 719.677 791.55 720.797 792.25L719.047 796.555C716.784 795.272 714.52 794.63 712.257 794.63C710.67 794.63 709.492 794.887 708.722 795.4C707.975 795.913 707.602 796.59 707.602 797.43C707.602 798.27 708.034 798.9 708.897 799.32C709.784 799.717 711.125 800.113 712.922 800.51C714.789 800.953 716.317 801.397 717.507 801.84C718.697 802.283 719.712 802.983 720.552 803.94C721.415 804.897 721.847 806.192 721.847 807.825C721.847 809.225 721.45 810.508 720.657 811.675C719.887 812.818 718.72 813.728 717.157 814.405C715.594 815.082 713.692 815.42 711.452 815.42ZM736.326 790.5C738.496 790.5 740.375 790.862 741.961 791.585C743.571 792.308 744.808 793.335 745.671 794.665C746.535 795.995 746.966 797.57 746.966 799.39C746.966 801.187 746.535 802.762 745.671 804.115C744.808 805.445 743.571 806.472 741.961 807.195C740.375 807.895 738.496 808.245 736.326 808.245H731.391V815H725.721V790.5H736.326ZM736.011 803.625C737.715 803.625 739.01 803.263 739.896 802.54C740.783 801.793 741.226 800.743 741.226 799.39C741.226 798.013 740.783 796.963 739.896 796.24C739.01 795.493 737.715 795.12 736.011 795.12H731.391V803.625H736.011ZM761.797 815.42C758.297 815.42 755.567 814.452 753.607 812.515C751.67 810.578 750.702 807.813 750.702 804.22V790.5H756.372V804.01C756.372 808.397 758.192 810.59 761.832 810.59C763.605 810.59 764.959 810.065 765.892 809.015C766.825 807.942 767.292 806.273 767.292 804.01V790.5H772.892V804.22C772.892 807.813 771.912 810.578 769.952 812.515C768.015 814.452 765.297 815.42 761.797 815.42ZM796.485 802.26C797.885 802.703 798.982 803.45 799.775 804.5C800.568 805.527 800.965 806.798 800.965 808.315C800.965 810.462 800.125 812.118 798.445 813.285C796.788 814.428 794.362 815 791.165 815H778.495V790.5H790.465C793.452 790.5 795.738 791.072 797.325 792.215C798.935 793.358 799.74 794.91 799.74 796.87C799.74 798.06 799.448 799.122 798.865 800.055C798.305 800.988 797.512 801.723 796.485 802.26ZM784.13 794.77V800.545H789.765C791.165 800.545 792.227 800.3 792.95 799.81C793.673 799.32 794.035 798.597 794.035 797.64C794.035 796.683 793.673 795.972 792.95 795.505C792.227 795.015 791.165 794.77 789.765 794.77H784.13ZM790.745 810.73C792.238 810.73 793.358 810.485 794.105 809.995C794.875 809.505 795.26 808.747 795.26 807.72C795.26 805.69 793.755 804.675 790.745 804.675H784.13V810.73H790.745ZM805.258 790.5H810.928V810.38H823.213V815H805.258V790.5ZM826.381 790.5H832.051V815H826.381V790.5ZM846.79 805.375L843.5 808.805V815H837.865V790.5H843.5V801.945L854.35 790.5H860.65L850.5 801.42L861.245 815H854.63L846.79 805.375ZM878.814 809.75H867.439L865.269 815H859.459L870.379 790.5H875.979L886.934 815H880.984L878.814 809.75ZM877.029 805.445L873.144 796.065L869.259 805.445H877.029ZM897.526 815.42C895.59 815.42 893.711 815.163 891.891 814.65C890.095 814.113 888.648 813.425 887.551 812.585L889.476 808.315C890.526 809.085 891.775 809.703 893.221 810.17C894.668 810.637 896.115 810.87 897.561 810.87C899.171 810.87 900.361 810.637 901.131 810.17C901.901 809.68 902.286 809.038 902.286 808.245C902.286 807.662 902.053 807.183 901.586 806.81C901.143 806.413 900.56 806.098 899.836 805.865C899.136 805.632 898.18 805.375 896.966 805.095C895.1 804.652 893.571 804.208 892.381 803.765C891.191 803.322 890.165 802.61 889.301 801.63C888.461 800.65 888.041 799.343 888.041 797.71C888.041 796.287 888.426 795.003 889.196 793.86C889.966 792.693 891.121 791.772 892.661 791.095C894.225 790.418 896.126 790.08 898.366 790.08C899.93 790.08 901.458 790.267 902.951 790.64C904.445 791.013 905.751 791.55 906.871 792.25L905.121 796.555C902.858 795.272 900.595 794.63 898.331 794.63C896.745 794.63 895.566 794.887 894.796 795.4C894.05 795.913 893.676 796.59 893.676 797.43C893.676 798.27 894.108 798.9 894.971 799.32C895.858 799.717 897.2 800.113 898.996 800.51C900.863 800.953 902.391 801.397 903.581 801.84C904.771 802.283 905.786 802.983 906.626 803.94C907.49 804.897 907.921 806.192 907.921 807.825C907.921 809.225 907.525 810.508 906.731 811.675C905.961 812.818 904.795 813.728 903.231 814.405C901.668 815.082 899.766 815.42 897.526 815.42ZM911.796 790.5H917.466V815H911.796V790.5ZM943.797 790.5C945.967 790.5 947.845 790.862 949.432 791.585C951.042 792.308 952.279 793.335 953.142 794.665C954.005 795.995 954.437 797.57 954.437 799.39C954.437 801.187 954.005 802.762 953.142 804.115C952.279 805.445 951.042 806.472 949.432 807.195C947.845 807.895 945.967 808.245 943.797 808.245H938.862V815H933.192V790.5H943.797ZM943.482 803.625C945.185 803.625 946.48 803.263 947.367 802.54C948.254 801.793 948.697 800.743 948.697 799.39C948.697 798.013 948.254 796.963 947.367 796.24C946.48 795.493 945.185 795.12 943.482 795.12H938.862V803.625H943.482ZM974.095 815L969.37 808.175H969.09H964.155V815H958.485V790.5H969.09C971.26 790.5 973.138 790.862 974.725 791.585C976.335 792.308 977.572 793.335 978.435 794.665C979.298 795.995 979.73 797.57 979.73 799.39C979.73 801.21 979.287 802.785 978.4 804.115C977.537 805.422 976.3 806.425 974.69 807.125L980.185 815H974.095ZM973.99 799.39C973.99 798.013 973.547 796.963 972.66 796.24C971.773 795.493 970.478 795.12 968.775 795.12H964.155V803.66H968.775C970.478 803.66 971.773 803.287 972.66 802.54C973.547 801.793 973.99 800.743 973.99 799.39ZM1003.19 810.45V815H984.222V790.5H1002.74V795.05H989.857V800.37H1001.23V804.78H989.857V810.45H1003.19ZM1027.55 810.38V815H1006.13V811.325L1019.57 795.12H1006.41V790.5H1027.02V794.175L1013.62 810.38H1027.55ZM1031.19 790.5H1036.86V815H1031.19V790.5ZM1042.67 790.5H1053.8C1056.46 790.5 1058.8 791.013 1060.83 792.04C1062.89 793.043 1064.47 794.467 1065.59 796.31C1066.74 798.153 1067.31 800.3 1067.31 802.75C1067.31 805.2 1066.74 807.347 1065.59 809.19C1064.47 811.033 1062.89 812.468 1060.83 813.495C1058.8 814.498 1056.46 815 1053.8 815H1042.67V790.5ZM1053.52 810.345C1055.97 810.345 1057.92 809.668 1059.36 808.315C1060.83 806.938 1061.57 805.083 1061.57 802.75C1061.57 800.417 1060.83 798.573 1059.36 797.22C1057.92 795.843 1055.97 795.155 1053.52 795.155H1048.34V810.345H1053.52ZM1090.56 810.45V815H1071.59V790.5H1090.1V795.05H1077.22V800.37H1088.6V804.78H1077.22V810.45H1090.56ZM1117.54 790.5V815H1112.88L1100.67 800.125V815H1095.07V790.5H1099.76L1111.94 805.375V790.5H1117.54ZM1128.41 795.12H1120.57V790.5H1141.92V795.12H1134.08V815H1128.41V795.12ZM1144.97 790.5H1150.64V815H1144.97V790.5ZM1188.84 790.5V815H1183.17V804.955H1172.04V815H1166.37V790.5H1172.04V800.16H1183.17V790.5H1188.84ZM1205.52 815.42C1202.02 815.42 1199.29 814.452 1197.33 812.515C1195.39 810.578 1194.42 807.813 1194.42 804.22V790.5H1200.09V804.01C1200.09 808.397 1201.91 810.59 1205.55 810.59C1207.33 810.59 1208.68 810.065 1209.61 809.015C1210.55 807.942 1211.01 806.273 1211.01 804.01V790.5H1216.61V804.22C1216.61 807.813 1215.63 810.578 1213.67 812.515C1211.74 814.452 1209.02 815.42 1205.52 815.42ZM1242.06 810.38V815H1220.64V811.325L1234.08 795.12H1220.92V790.5H1241.54V794.175L1228.13 810.38H1242.06ZM1256.58 815.42C1253.08 815.42 1250.35 814.452 1248.39 812.515C1246.46 810.578 1245.49 807.813 1245.49 804.22V790.5H1251.16V804.01C1251.16 808.397 1252.98 810.59 1256.62 810.59C1258.39 810.59 1259.74 810.065 1260.68 809.015C1261.61 807.942 1262.08 806.273 1262.08 804.01V790.5H1267.68V804.22C1267.68 807.813 1266.7 810.578 1264.74 812.515C1262.8 814.452 1260.08 815.42 1256.58 815.42ZM1288.89 815L1284.17 808.175H1283.89H1278.95V815H1273.28V790.5H1283.89C1286.06 790.5 1287.93 790.862 1289.52 791.585C1291.13 792.308 1292.37 793.335 1293.23 794.665C1294.09 795.995 1294.53 797.57 1294.53 799.39C1294.53 801.21 1294.08 802.785 1293.2 804.115C1292.33 805.422 1291.1 806.425 1289.49 807.125L1294.98 815H1288.89ZM1288.79 799.39C1288.79 798.013 1288.34 796.963 1287.46 796.24C1286.57 795.493 1285.27 795.12 1283.57 795.12H1278.95V803.66H1283.57C1285.27 803.66 1286.57 803.287 1287.46 802.54C1288.34 801.793 1288.79 800.743 1288.79 799.39ZM1299.02 790.5H1304.69V815H1299.02V790.5ZM1310.5 790.5H1321.63C1324.29 790.5 1326.64 791.013 1328.67 792.04C1330.72 793.043 1332.31 794.467 1333.43 796.31C1334.57 798.153 1335.14 800.3 1335.14 802.75C1335.14 805.2 1334.57 807.347 1333.43 809.19C1332.31 811.033 1330.72 812.468 1328.67 813.495C1326.64 814.498 1324.29 815 1321.63 815H1310.5V790.5ZM1321.35 810.345C1323.8 810.345 1325.75 809.668 1327.2 808.315C1328.67 806.938 1329.4 805.083 1329.4 802.75C1329.4 800.417 1328.67 798.573 1327.2 797.22C1325.75 795.843 1323.8 795.155 1321.35 795.155H1316.17V810.345H1321.35ZM1355.21 809.75H1343.84L1341.67 815H1335.86L1346.78 790.5H1352.38L1363.33 815H1357.38L1355.21 809.75ZM1353.43 805.445L1349.54 796.065L1345.66 805.445H1353.43ZM1382.09 802.365H1387.27V812.305C1385.94 813.308 1384.4 814.078 1382.65 814.615C1380.9 815.152 1379.13 815.42 1377.36 815.42C1374.82 815.42 1372.53 814.883 1370.5 813.81C1368.47 812.713 1366.87 811.208 1365.71 809.295C1364.56 807.358 1363.99 805.177 1363.99 802.75C1363.99 800.323 1364.56 798.153 1365.71 796.24C1366.87 794.303 1368.48 792.798 1370.54 791.725C1372.59 790.628 1374.9 790.08 1377.47 790.08C1379.61 790.08 1381.56 790.442 1383.31 791.165C1385.06 791.888 1386.53 792.938 1387.72 794.315L1384.08 797.675C1382.33 795.832 1380.22 794.91 1377.75 794.91C1376.18 794.91 1374.79 795.237 1373.58 795.89C1372.37 796.543 1371.42 797.465 1370.75 798.655C1370.07 799.845 1369.73 801.21 1369.73 802.75C1369.73 804.267 1370.07 805.62 1370.75 806.81C1371.42 808 1372.36 808.933 1373.55 809.61C1374.76 810.263 1376.14 810.59 1377.68 810.59C1379.31 810.59 1380.78 810.24 1382.09 809.54V802.365ZM1392.53 790.5H1398.2V815H1392.53V790.5Z" fill="#679A62"/>
<path d="M319.832 866H334.412V929H319.832V866ZM360.974 930.08C356.714 930.08 352.784 929.3 349.184 927.74C345.644 926.12 342.734 923.84 340.454 920.9L348.554 911.18C351.974 915.8 355.874 918.11 360.254 918.11C366.194 918.11 369.164 914.63 369.164 907.67V877.7H347.024V866H383.654V906.86C383.654 914.6 381.734 920.42 377.894 924.32C374.054 928.16 368.414 930.08 360.974 930.08ZM410.05 877.88H389.89V866H444.79V877.88H424.63V929H410.05V877.88ZM452.635 866H467.215V929H452.635V866ZM539.496 929L539.406 891.2L520.866 922.34H514.296L495.846 892.01V929H482.166V866H494.226L517.806 905.15L541.026 866H552.996L553.176 929H539.496ZM598.633 930.08C592.093 930.08 586.183 928.67 580.903 925.85C575.683 923.03 571.573 919.16 568.573 914.24C565.633 909.26 564.163 903.68 564.163 897.5C564.163 891.32 565.633 885.77 568.573 880.85C571.573 875.87 575.683 871.97 580.903 869.15C586.183 866.33 592.093 864.92 598.633 864.92C605.173 864.92 611.053 866.33 616.273 869.15C621.493 871.97 625.603 875.87 628.603 880.85C631.603 885.77 633.103 891.32 633.103 897.5C633.103 903.68 631.603 909.26 628.603 914.24C625.603 919.16 621.493 923.03 616.273 925.85C611.053 928.67 605.173 930.08 598.633 930.08ZM598.633 917.66C602.353 917.66 605.713 916.82 608.713 915.14C611.713 913.4 614.053 911 615.733 907.94C617.473 904.88 618.343 901.4 618.343 897.5C618.343 893.6 617.473 890.12 615.733 887.06C614.053 884 611.713 881.63 608.713 879.95C605.713 878.21 602.353 877.34 598.633 877.34C594.913 877.34 591.553 878.21 588.553 879.95C585.553 881.63 583.183 884 581.443 887.06C579.763 890.12 578.923 893.6 578.923 897.5C578.923 901.4 579.763 904.88 581.443 907.94C583.183 911 585.553 913.4 588.553 915.14C591.553 916.82 594.913 917.66 598.633 917.66ZM644.061 866H658.641V929H644.061V866ZM703.832 906.68V929H689.252V906.5L664.862 866H680.342L697.172 893.99L714.002 866H728.312L703.832 906.68ZM817.681 866V929H803.101V903.17H774.481V929H759.901V866H774.481V890.84H803.101V866H817.681ZM832.586 866H847.166V929H832.586V866ZM919.447 929L919.357 891.2L900.817 922.34H894.247L875.797 892.01V929H862.117V866H874.177L897.757 905.15L920.977 866H932.947L933.127 929H919.447ZM978.584 930.08C972.044 930.08 966.134 928.67 960.854 925.85C955.634 923.03 951.524 919.16 948.524 914.24C945.584 909.26 944.114 903.68 944.114 897.5C944.114 891.32 945.584 885.77 948.524 880.85C951.524 875.87 955.634 871.97 960.854 869.15C966.134 866.33 972.044 864.92 978.584 864.92C985.124 864.92 991.004 866.33 996.224 869.15C1001.44 871.97 1005.55 875.87 1008.55 880.85C1011.55 885.77 1013.05 891.32 1013.05 897.5C1013.05 903.68 1011.55 909.26 1008.55 914.24C1005.55 919.16 1001.44 923.03 996.224 925.85C991.004 928.67 985.124 930.08 978.584 930.08ZM978.584 917.66C982.304 917.66 985.664 916.82 988.664 915.14C991.664 913.4 994.004 911 995.684 907.94C997.424 904.88 998.294 901.4 998.294 897.5C998.294 893.6 997.424 890.12 995.684 887.06C994.004 884 991.664 881.63 988.664 879.95C985.664 878.21 982.304 877.34 978.584 877.34C974.864 877.34 971.504 878.21 968.504 879.95C965.504 881.63 963.134 884 961.394 887.06C959.714 890.12 958.874 893.6 958.874 897.5C958.874 901.4 959.714 904.88 961.394 907.94C963.134 911 965.504 913.4 968.504 915.14C971.504 916.82 974.864 917.66 978.584 917.66ZM1051.53 906.68V929H1036.95V906.5L1012.56 866H1028.04L1044.87 893.99L1061.7 866H1076.01L1051.53 906.68ZM1119.73 915.5H1090.48L1084.9 929H1069.96L1098.04 866H1112.44L1140.61 929H1125.31L1119.73 915.5ZM1115.14 904.43L1105.15 880.31L1095.16 904.43H1115.14ZM1229.97 929L1229.88 891.2L1211.34 922.34H1204.77L1186.32 892.01V929H1172.64V866H1184.7L1208.28 905.15L1231.5 866H1243.47L1243.65 929H1229.97ZM1258.59 866H1273.17V929H1258.59V866ZM1288.12 866H1302.7V917.12H1334.29V929H1288.12V866ZM1342.44 866H1357.02V917.12H1388.61V929H1342.44V866ZM1396.76 866H1411.34V929H1396.76V866ZM1456.53 906.68V929H1441.95V906.5L1417.56 866H1433.04L1449.87 893.99L1466.7 866H1481.01L1456.53 906.68ZM690.473 1025.5H661.223L655.643 1039H640.703L668.783 976H683.183L711.353 1039H696.053L690.473 1025.5ZM685.883 1014.43L675.893 990.31L665.903 1014.43H685.883ZM759.58 1006.51H772.9V1032.07C769.48 1034.65 765.52 1036.63 761.02 1038.01C756.52 1039.39 751.99 1040.08 747.43 1040.08C740.89 1040.08 735.01 1038.7 729.79 1035.94C724.57 1033.12 720.46 1029.25 717.46 1024.33C714.52 1019.35 713.05 1013.74 713.05 1007.5C713.05 1001.26 714.52 995.68 717.46 990.76C720.46 985.78 724.6 981.91 729.88 979.15C735.16 976.33 741.1 974.92 747.7 974.92C753.22 974.92 758.23 975.85 762.73 977.71C767.23 979.57 771.01 982.27 774.07 985.81L764.71 994.45C760.21 989.71 754.78 987.34 748.42 987.34C744.4 987.34 740.83 988.18 737.71 989.86C734.59 991.54 732.16 993.91 730.42 996.97C728.68 1000.03 727.81 1003.54 727.81 1007.5C727.81 1011.4 728.68 1014.88 730.42 1017.94C732.16 1021 734.56 1023.4 737.62 1025.14C740.74 1026.82 744.28 1027.66 748.24 1027.66C752.44 1027.66 756.22 1026.76 759.58 1024.96V1006.51ZM835.224 1027.3V1039H786.444V976H834.054V987.7H800.934V1001.38H830.184V1012.72H800.934V1027.3H835.224ZM904.604 976V1039H892.634L861.224 1000.75V1039H846.824V976H858.884L890.204 1014.25V976H904.604ZM932.56 987.88H912.4V976H967.3V987.88H947.14V1039H932.56V987.88ZM975.145 976H989.725V1027.12H1021.31V1039H975.145V976ZM1029.46 976H1044.04V1039H1029.46V976ZM1101.56 1006.51H1114.88V1032.07C1111.46 1034.65 1107.5 1036.63 1103 1038.01C1098.5 1039.39 1093.97 1040.08 1089.41 1040.08C1082.87 1040.08 1076.99 1038.7 1071.77 1035.94C1066.55 1033.12 1062.44 1029.25 1059.44 1024.33C1056.5 1019.35 1055.03 1013.74 1055.03 1007.5C1055.03 1001.26 1056.5 995.68 1059.44 990.76C1062.44 985.78 1066.58 981.91 1071.86 979.15C1077.14 976.33 1083.08 974.92 1089.68 974.92C1095.2 974.92 1100.21 975.85 1104.71 977.71C1109.21 979.57 1112.99 982.27 1116.05 985.81L1106.69 994.45C1102.19 989.71 1096.76 987.34 1090.4 987.34C1086.38 987.34 1082.81 988.18 1079.69 989.86C1076.57 991.54 1074.14 993.91 1072.4 996.97C1070.66 1000.03 1069.79 1003.54 1069.79 1007.5C1069.79 1011.4 1070.66 1014.88 1072.4 1017.94C1074.14 1021 1076.54 1023.4 1079.6 1025.14C1082.72 1026.82 1086.26 1027.66 1090.22 1027.66C1094.42 1027.66 1098.2 1026.76 1101.56 1024.96V1006.51ZM1128.43 976H1143.01V1039H1128.43V976Z" fill="#679A62"/>
</svg>
